<?xml version="1.0" encoding="UTF-8"?>
<svg width="84px" height="96px" viewBox="0 0 84 96" version="1.1" xmlns="http://www.w3.org/2000/svg" xmlns:xlink="http://www.w3.org/1999/xlink">
    <!-- Generator: Sketch 43.2 (39069) - http://www.bohemiancoding.com/sketch -->
    <title>noun_943843_cc</title>
    <desc>Created with Sketch.</desc>
    <defs></defs>
    <g id="Page-1" stroke="none" stroke-width="1" fill="none" fill-rule="evenodd">
        <g id="noun_943843_cc" fill-rule="nonzero" fill="#000000">
            <path d="M83.1,84.8 L76.8,29.2 C76.7,28.2 75.9,27.6 74.9,27.6 L64.1,27.6 L64.1,22.3 C64.1,10.2 54.1,0.3 42,0.3 C29.9,0.3 19.9,10.2 19.9,22.3 L19.9,27.6 L9.1,27.6 C8.1,27.6 7.3,28.4 7.2,29.2 L0.9,84.8 L0.9,85.1 C0.9,91 5.7,95.8 11.6,95.8 L72.3,95.8 C78.2,95.8 83,91 83,85.1 C83.1,85.1 83.1,84.9 83.1,84.8 Z M26.2,22.2 C26.2,13.6 33.3,6.5 42,6.5 C50.7,6.5 57.8,13.6 57.8,22.2 L57.8,27.5 L26.2,27.5 L26.2,22.2 Z M24,50.3 C20.9,50.3 18.5,47.9 18.5,44.8 C18.5,41.7 20.9,39.3 24,39.3 C27.1,39.3 29.5,41.7 29.5,44.8 C29.5,47.9 27.1,50.3 24,50.3 Z M60,50.3 C56.9,50.3 54.5,47.9 54.5,44.8 C54.5,41.7 56.9,39.3 60,39.3 C63.1,39.3 65.5,41.7 65.5,44.8 C65.5,47.9 63,50.3 60,50.3 Z" id="Shape"></path>
        </g>
    </g>
</svg>