<?xml version="1.0" encoding="UTF-8"?>
<svg width="72px" height="76px" viewBox="0 0 72 76" version="1.1" xmlns="http://www.w3.org/2000/svg" xmlns:xlink="http://www.w3.org/1999/xlink">
    <!-- Generator: Sketch 43.2 (39069) - http://www.bohemiancoding.com/sketch -->
    <title>noun_1399673_cc</title>
    <desc>Created with Sketch.</desc>
    <defs></defs>
    <g id="Page-1" stroke="none" stroke-width="1" fill="none" fill-rule="evenodd">
        <g id="noun_1399673_cc" fill-rule="nonzero" fill="#000000">
            <g id="Group">
                <path d="M4.5,19.6 L9.6,19.6 L9.6,63.2 C9.6,69.827417 14.972583,75.2 21.6,75.2 L50.4,75.2 C57.027417,75.2 62.4,69.827417 62.4,63.2 L62.4,19.6 L67.5,19.6 C69.709139,19.6 71.5,17.809139 71.5,15.6 C71.5,13.390861 69.709139,11.6 67.5,11.6 L49.7,11.6 L49.7,8.8 C49.7,4.381722 46.118278,0.8 41.7,0.8 L30.3,0.8 C25.881722,0.8 22.3,4.381722 22.3,8.8 L22.3,11.6 L4.5,11.6 C2.290861,11.6 0.5,13.390861 0.5,15.6 C0.5,17.809139 2.290861,19.6 4.5,19.6 Z M54.4,63.2 C54.4,65.409139 52.609139,67.2 50.4,67.2 L21.6,67.2 C19.390861,67.2 17.6,65.409139 17.6,63.2 L17.6,19.6 L54.4,19.6 L54.4,63.2 Z M30.4,8.7 L41.7,8.7 L41.7,11.5 L30.3,11.5 L30.4,8.7 Z" id="Shape"></path>
                <path d="M43.5,62 C45.709139,62 47.5,60.209139 47.5,58 L47.5,28.1 C47.5,25.890861 45.709139,24.1 43.5,24.1 C41.290861,24.1 39.5,25.890861 39.5,28.1 L39.5,58 C39.5,60.209139 41.290861,62 43.5,62 Z" id="Shape"></path>
                <path d="M28.5,62 C30.709139,62 32.5,60.209139 32.5,58 L32.5,28.1 C32.5,25.890861 30.709139,24.1 28.5,24.1 C26.290861,24.1 24.5,25.890861 24.5,28.1 L24.5,58 C24.5,60.209139 26.290861,62 28.5,62 Z" id="Shape"></path>
            </g>
        </g>
    </g>
</svg>