<?xml version="1.0" encoding="UTF-8"?>
<svg width="323px" height="32px" viewBox="0 0 323 32" version="1.1" xmlns="http://www.w3.org/2000/svg" xmlns:xlink="http://www.w3.org/1999/xlink">
    <!-- Generator: Sketch 48.2 (47327) - http://www.bohemiancoding.com/sketch -->
    <title>roomLogo</title>
    <desc>Created with Sketch.</desc>
    <defs></defs>
    <g id="Home" stroke="none" stroke-width="1" fill="none" fill-rule="evenodd" transform="translate(-97.000000, -230.000000)">
        <path d="M284.158573,241.125456 L284.26635,240.448 C284.458351,239.487995 285.226343,239.008 286.57035,239.008 C287.559386,239.008 288.132521,239.371903 288.289763,240.099718 C289.789823,239.680618 291.24398,239.220712 292.652233,238.72 C293.804239,238.335998 294.572232,238.767994 294.956233,240.016 C295.340235,241.264006 294.956239,242.175997 293.804233,242.752 C291.847825,243.447612 289.783137,244.064467 287.610164,244.602566 L286.85835,248.512 C288.202357,247.551995 289.834341,246.400007 291.75435,245.056 C293.67436,243.711993 295.69034,242.416006 297.80235,241.168 C299.914361,239.919994 302.02634,238.864004 304.13835,238 C306.250361,237.135996 308.170342,236.704 309.89835,236.704 C312.970366,236.704 314.650349,237.71199 314.93835,239.728 C315.226352,241.74401 315.37035,243.807989 315.37035,245.92 C315.37035,247.264007 315.41835,248.415995 315.51435,249.376 C315.610351,250.336005 315.946347,250.816 316.52235,250.816 C319.018363,250.816 321.994333,249.952009 325.45035,248.224 C328.906367,246.495991 332.362333,244.576011 335.81835,242.464 C339.466368,240.351989 342.970333,238.480008 346.33035,236.848 C349.690367,235.215992 352.522339,234.4 354.82635,234.4 C358.090366,234.4 360.634341,235.311991 362.45835,237.136 C364.282359,238.960009 366.058342,241.119988 367.78635,243.616 C369.322358,245.728011 371.002341,247.79199 372.82635,249.808 C374.650359,251.82401 377.194334,252.832 380.45835,252.832 C383.722366,252.832 387.32233,252.160007 391.25835,250.816 C395.19437,249.471993 398.938332,247.984008 402.49035,246.352 C406.042368,244.719992 409.114337,243.184007 411.70635,241.744 C414.298363,240.303993 415.882347,239.392002 416.45835,239.008 C417.418355,238.239996 418.282346,238.383995 419.05035,239.44 C419.818354,240.496005 419.722355,241.503995 418.76235,242.464 C418.186347,242.848002 416.554364,243.807992 413.86635,245.344 C411.178337,246.880008 407.962369,248.511991 404.21835,250.24 C400.474331,251.968009 396.490371,253.503993 392.26635,254.848 C388.042329,256.192007 384.106368,256.864 380.45835,256.864 C376.234329,256.864 372.970362,255.712012 370.66635,253.408 C368.362339,251.103988 366.25036,248.608013 364.33035,245.92 C362.794342,243.807989 361.354357,242.032007 360.01035,240.592 C358.666343,239.151993 356.938361,238.432 354.82635,238.432 C353.098342,238.432 350.650366,239.151993 347.48235,240.592 C344.314334,242.032007 341.098366,243.807989 337.83435,245.92 C333.994331,248.224012 330.154369,250.287991 326.31435,252.112 C322.474331,253.936009 319.210364,254.848 316.52235,254.848 C313.834337,254.848 312.298352,253.936009 311.91435,252.112 C311.530348,250.287991 311.33835,248.224012 311.33835,245.92 C311.33835,244.575993 311.290351,243.376005 311.19435,242.32 C311.09835,241.263995 310.666354,240.736 309.89835,240.736 C308.554343,240.736 306.87436,241.215995 304.85835,242.176 C302.84234,243.136005 300.730361,244.287993 298.52235,245.632 C296.314339,246.976007 294.154361,248.415992 292.04235,249.952 C289.93034,251.488008 288.010359,252.831994 286.28235,253.984 C284.746342,255.136006 283.642354,255.520002 282.97035,255.136 C282.298347,254.751998 282.058349,254.080005 282.25035,253.12 L283.461151,245.509249 C277.005124,246.743087 269.700845,247.36 261.548233,247.36 C257.708214,247.36 254.060251,247.264001 250.604233,247.072 C247.148216,246.879999 244.076247,246.592002 241.388233,246.208 C241.580234,248.896013 240.908241,251.727985 239.372233,254.704 C237.836226,257.680015 235.43625,259.168 232.172233,259.168 C229.48422,259.168 227.756237,258.112011 226.988233,256 C226.22023,253.887989 226.076231,251.536013 226.556233,248.944 C226.741866,247.941584 227.013645,246.946352 227.371571,245.9583 C221.561551,246.892769 215.109084,247.36 208.014117,247.36 C204.174098,247.36 200.526134,247.264001 197.070117,247.072 C193.614099,246.879999 190.54213,246.592002 187.854117,246.208 C188.046118,248.896013 187.374124,251.727985 185.838117,254.704 C184.302109,257.680015 181.902133,259.168 178.638117,259.168 C175.950103,259.168 174.222121,258.112011 173.454117,256 C172.795449,254.188664 172.595762,252.200824 172.855052,250.036435 C167.444173,252.305297 161.799211,254.293132 155.92,256 C149.96797,257.728009 144.01603,259.071995 138.064,260.032 C132.11197,260.992005 126.544026,261.472 121.36,261.472 C118.095984,261.472 115.264012,260.51201 112.864,258.592 C110.463988,256.67199 109.264,254.368013 109.264,251.68 C109.264,250.335993 109.503998,248.752009 109.984,246.928 C110.464002,245.103991 110.991997,243.424008 111.568,241.888 C107.343979,242.464003 103.888013,241.984008 101.2,240.448 C98.5119866,238.911992 97.168,236.320018 97.168,232.672 C97.168,231.711995 97.8399933,231.136001 99.184,230.944 C100.528007,230.751999 101.2,231.327993 101.2,232.672 C101.2,234.976012 102.351988,236.607995 104.656,237.568 C106.960012,238.528005 110.031981,238.432006 113.872,237.28 C115.024006,236.895998 115.887997,237.231995 116.464,238.288 C117.040003,239.344005 116.944004,240.351995 116.176,241.312 C115.215995,242.656007 114.496002,244.33599 114.016,246.352 C113.535998,248.36801 113.296,250.143992 113.296,251.68 C113.296,253.216008 114.111992,254.559994 115.744,255.712 C117.376008,256.864006 119.247989,257.44 121.36,257.44 C126.352025,257.44 131.727971,256.960005 137.488,256 C143.248029,255.039995 149.007971,253.744008 154.768,252.112 C160.528029,250.479992 165.999974,248.560011 171.184,246.352 C172.21558,245.912623 173.224349,245.463745 174.210307,245.005363 C174.732708,243.762784 175.392643,242.531666 176.190117,241.312 C177.822125,238.815988 179.790105,237.088005 182.094117,236.128 C183.246122,235.743998 184.110114,236.223993 184.686117,237.568 C184.936432,238.152069 185.023578,238.645485 184.947553,239.048251 C184.967716,239.03484 184.987865,239.021423 185.008,239.008 C186.160006,238.431997 187.071997,238.671995 187.744,239.728 C188.191584,240.431346 188.277177,241.070805 188.000779,241.646385 C190.954926,242.235352 193.978017,242.651887 197.070117,242.896 C200.718135,243.184001 204.366098,243.328 208.014117,243.328 C216.003438,243.328 223.238853,242.657932 229.720453,241.317784 C229.721713,241.315856 229.722973,241.313928 229.724233,241.312 C231.356242,238.815988 233.324222,237.088005 235.628233,236.128 C236.780239,235.743998 237.644231,236.223993 238.220233,237.568 C238.447906,238.099236 238.540593,238.555478 238.498295,238.936727 C238.705881,238.865355 238.912488,238.793112 239.118117,238.72 C240.270122,238.335998 241.038115,238.767994 241.422117,240.016 C241.612541,240.63488 241.614106,241.17113 241.42681,241.624753 C244.415292,242.225163 247.474411,242.648909 250.604233,242.896 C254.252252,243.184001 257.900215,243.328 261.548233,243.328 C269.911014,243.328 277.44776,242.593824 284.158573,241.125456 Z M232.581146,244.956468 C231.943424,246.118161 231.423123,247.303332 231.020233,248.512 C230.444231,250.240009 230.204233,251.775993 230.300233,253.12 C230.396234,254.464007 231.020228,255.136 232.172233,255.136 C233.708241,255.136 234.956229,253.984012 235.916233,251.68 C236.876238,249.375988 237.164235,246.880013 236.780233,244.192 C236.765271,244.087264 236.753224,243.985444 236.744092,243.886538 C235.401455,244.275919 234.013807,244.632563 232.581146,244.956468 Z M183.334174,244.920238 C181.572569,245.930029 179.699671,246.910138 177.715472,247.860571 C177.635204,248.076951 177.558752,248.294093 177.486117,248.512 C176.910114,250.240009 176.670116,251.775993 176.766117,253.12 C176.862117,254.464007 177.486111,255.136 178.638117,255.136 C180.174124,255.136 181.422112,253.984012 182.382117,251.68 C183.25486,249.585416 183.57221,247.332181 183.334174,244.920238 Z" id="roomLogo" fill="#262626"></path>
    </g>
</svg>